<svg width="427" height="201" viewBox="0 0 427 201" fill="none" xmlns="http://www.w3.org/2000/svg">
<path d="M102.048 25.064L80.448 95H65.76L52.608 51.656C52.352 50.984 52.112 50.248 51.888 49.448C51.664 48.616 51.44 47.752 51.216 46.856C50.992 47.752 50.768 48.616 50.544 49.448C50.32 50.248 50.08 50.984 49.824 51.656L36.48 95H21.792L0.192 25.064H13.824C15.232 25.064 16.4 25.384 17.328 26.024C18.288 26.664 18.912 27.512 19.2 28.568L28.8 65.048C29.088 66.2 29.376 67.464 29.664 68.84C29.952 70.184 30.24 71.592 30.528 73.064C31.104 70.056 31.808 67.384 32.64 65.048L43.968 28.568C44.256 27.672 44.864 26.872 45.792 26.168C46.752 25.432 47.904 25.064 49.248 25.064H54.048C55.456 25.064 56.592 25.4 57.456 26.072C58.32 26.712 58.976 27.544 59.424 28.568L70.656 65.048C71.488 67.288 72.192 69.832 72.768 72.68C73.024 71.24 73.28 69.896 73.536 68.648C73.824 67.368 74.112 66.168 74.4 65.048L84 28.568C84.256 27.64 84.864 26.824 85.824 26.12C86.784 25.416 87.936 25.064 89.28 25.064H102.048ZM176.153 68.408V95H159.929V68.408L134.585 25.064H148.889C150.297 25.064 151.401 25.4 152.201 26.072C153.033 26.712 153.721 27.544 154.265 28.568L164.153 48.92C164.985 50.52 165.737 52.024 166.409 53.432C167.081 54.808 167.673 56.168 168.185 57.512C168.665 56.136 169.209 54.76 169.817 53.384C170.457 51.976 171.193 50.488 172.025 48.92L181.817 28.568C182.041 28.152 182.313 27.736 182.633 27.32C182.953 26.904 183.321 26.536 183.737 26.216C184.185 25.864 184.681 25.592 185.225 25.4C185.801 25.176 186.425 25.064 187.097 25.064H201.497L176.153 68.408ZM276.389 39.272C275.909 40.04 275.397 40.616 274.853 41C274.341 41.384 273.669 41.576 272.837 41.576C272.101 41.576 271.301 41.352 270.437 40.904C269.605 40.424 268.645 39.896 267.557 39.32C266.501 38.744 265.285 38.232 263.909 37.784C262.533 37.304 260.965 37.064 259.205 37.064C256.165 37.064 253.893 37.72 252.389 39.032C250.917 40.312 250.181 42.056 250.181 44.264C250.181 45.672 250.629 46.84 251.525 47.768C252.421 48.696 253.589 49.496 255.029 50.168C256.501 50.84 258.165 51.464 260.021 52.04C261.909 52.584 263.829 53.208 265.781 53.912C267.733 54.584 269.637 55.384 271.493 56.312C273.381 57.24 275.045 58.424 276.485 59.864C277.957 61.304 279.141 63.064 280.037 65.144C280.933 67.192 281.381 69.672 281.381 72.584C281.381 75.816 280.821 78.84 279.701 81.656C278.581 84.472 276.949 86.936 274.805 89.048C272.693 91.128 270.069 92.776 266.933 93.992C263.829 95.176 260.293 95.768 256.325 95.768C254.149 95.768 251.925 95.544 249.653 95.096C247.413 94.648 245.237 94.024 243.125 93.224C241.013 92.392 239.029 91.416 237.173 90.296C235.317 89.176 233.701 87.928 232.325 86.552L237.125 78.968C237.509 78.424 238.005 77.976 238.613 77.624C239.253 77.24 239.941 77.048 240.677 77.048C241.637 77.048 242.597 77.352 243.557 77.96C244.549 78.568 245.653 79.24 246.869 79.976C248.117 80.712 249.541 81.384 251.141 81.992C252.741 82.6 254.629 82.904 256.805 82.904C259.749 82.904 262.037 82.264 263.669 80.984C265.301 79.672 266.117 77.608 266.117 74.792C266.117 73.16 265.669 71.832 264.773 70.808C263.877 69.784 262.693 68.936 261.221 68.264C259.781 67.592 258.133 67 256.277 66.488C254.421 65.976 252.517 65.416 250.565 64.808C248.613 64.168 246.709 63.4 244.853 62.504C242.997 61.576 241.333 60.376 239.861 58.904C238.421 57.4 237.253 55.544 236.357 53.336C235.461 51.096 235.013 48.344 235.013 45.08C235.013 42.456 235.541 39.896 236.597 37.4C237.653 34.904 239.205 32.68 241.253 30.728C243.301 28.776 245.813 27.224 248.789 26.072C251.765 24.888 255.173 24.296 259.013 24.296C261.157 24.296 263.237 24.472 265.253 24.824C267.301 25.144 269.237 25.64 271.061 26.312C272.885 26.952 274.581 27.736 276.149 28.664C277.749 29.56 279.173 30.584 280.421 31.736L276.389 39.272ZM340.825 37.544V53.864H362.809V65.864H340.825V82.52H369.529V95H324.505V25.064H369.529V37.544H340.825Z" fill="#14320D"/>
<path d="M19.456 166.962C16.768 166.962 14.336 166.514 12.16 165.618C9.984 164.679 8.128 163.421 6.592 161.842C5.056 160.263 3.86133 158.429 3.008 156.338C2.19733 154.247 1.792 152.05 1.792 149.746C1.792 147.357 2.19733 145.117 3.008 143.026C3.81867 140.893 4.992 139.037 6.528 137.458C8.064 135.837 9.92 134.557 12.096 133.618C14.3147 132.679 16.7893 132.21 19.52 132.21C22.2507 132.21 24.6827 132.679 26.816 133.618C28.992 134.557 30.8267 135.815 32.32 137.394C33.856 138.973 35.008 140.807 35.776 142.898C36.5867 144.989 36.992 147.165 36.992 149.426C36.992 149.981 36.9707 150.514 36.928 151.026C36.928 151.538 36.8853 151.965 36.8 152.306H10.88C11.008 153.629 11.328 154.802 11.84 155.826C12.352 156.85 13.0133 157.725 13.824 158.45C14.6347 159.175 15.552 159.73 16.576 160.114C17.6 160.498 18.6667 160.69 19.776 160.69C21.4827 160.69 23.0827 160.285 24.576 159.474C26.112 158.621 27.1573 157.511 27.712 156.146L35.072 158.194C33.8347 160.754 31.8507 162.866 29.12 164.53C26.432 166.151 23.2107 166.962 19.456 166.962ZM28.16 146.738C27.9467 144.221 27.008 142.215 25.344 140.722C23.7227 139.186 21.7387 138.418 19.392 138.418C18.24 138.418 17.152 138.631 16.128 139.058C15.1467 139.442 14.272 139.997 13.504 140.722C12.736 141.447 12.096 142.322 11.584 143.346C11.1147 144.37 10.8373 145.501 10.752 146.738H28.16ZM57.221 132.786L64.453 143.282L64.965 144.434L65.605 143.282L72.773 132.786H81.605L69.637 149.618L81.797 166.322H72.965L65.541 155.89L64.965 154.802L64.453 155.89L57.093 166.322H48.261L60.357 149.618L48.453 132.786H57.221ZM93.2395 149.554C93.2395 147.207 93.6448 144.989 94.4555 142.898C95.2662 140.807 96.4395 138.973 97.9755 137.394C99.5115 135.815 101.368 134.557 103.544 133.618C105.72 132.679 108.173 132.21 110.904 132.21C114.573 132.21 117.688 132.999 120.248 134.578C122.85 136.157 124.792 138.226 126.072 140.786L117.688 143.346C116.962 142.109 116.002 141.17 114.808 140.53C113.613 139.847 112.29 139.506 110.84 139.506C109.602 139.506 108.45 139.762 107.384 140.274C106.317 140.743 105.378 141.426 104.568 142.322C103.8 143.175 103.181 144.221 102.712 145.458C102.285 146.695 102.072 148.061 102.072 149.554C102.072 151.047 102.306 152.413 102.776 153.65C103.245 154.887 103.864 155.954 104.632 156.85C105.442 157.746 106.381 158.45 107.448 158.962C108.514 159.431 109.645 159.666 110.84 159.666C112.376 159.666 113.784 159.282 115.064 158.514C116.386 157.746 117.304 156.807 117.816 155.698L126.2 158.258C125.048 160.818 123.149 162.909 120.504 164.53C117.858 166.151 114.68 166.962 110.968 166.962C108.237 166.962 105.784 166.493 103.608 165.554C101.432 164.615 99.5755 163.357 98.0395 161.778C96.5035 160.157 95.3088 158.301 94.4555 156.21C93.6448 154.077 93.2395 151.858 93.2395 149.554ZM142.292 119.602H150.868V155.57C150.868 156.807 151.167 157.767 151.764 158.45C152.362 159.133 153.215 159.474 154.325 159.474C154.837 159.474 155.391 159.389 155.989 159.218C156.628 159.047 157.226 158.834 157.781 158.578L158.933 165.106C157.781 165.661 156.436 166.087 154.9 166.386C153.365 166.685 151.978 166.834 150.74 166.834C148.052 166.834 145.962 166.13 144.468 164.722C143.018 163.271 142.292 161.223 142.292 158.578V119.602ZM183.789 166.962C180.333 166.962 177.709 165.853 175.917 163.634C174.125 161.415 173.229 158.13 173.229 153.778V132.786H181.805V151.922C181.805 157.085 183.661 159.666 187.373 159.666C189.037 159.666 190.637 159.175 192.173 158.194C193.752 157.17 195.032 155.634 196.013 153.586V132.786H204.589V156.466C204.589 157.362 204.738 158.002 205.037 158.386C205.378 158.77 205.912 158.983 206.637 159.026V166.322C205.784 166.493 205.058 166.599 204.461 166.642C203.906 166.685 203.394 166.706 202.925 166.706C201.389 166.706 200.13 166.365 199.149 165.682C198.21 164.957 197.656 163.975 197.485 162.738L197.293 160.05C195.8 162.354 193.88 164.082 191.533 165.234C189.186 166.386 186.605 166.962 183.789 166.962ZM236.663 166.962C233.847 166.962 231.095 166.514 228.407 165.618C225.719 164.722 223.415 163.442 221.495 161.778L224.695 156.402C226.743 157.853 228.727 158.962 230.647 159.73C232.61 160.455 234.551 160.818 236.471 160.818C238.178 160.818 239.522 160.498 240.503 159.858C241.485 159.218 241.975 158.301 241.975 157.106C241.975 155.911 241.399 155.037 240.247 154.482C239.095 153.927 237.218 153.287 234.615 152.562C232.439 151.965 230.583 151.389 229.047 150.834C227.511 150.279 226.274 149.661 225.335 148.978C224.397 148.253 223.714 147.442 223.287 146.546C222.861 145.607 222.647 144.498 222.647 143.218C222.647 141.511 222.967 139.975 223.607 138.61C224.29 137.245 225.229 136.093 226.423 135.154C227.618 134.173 229.005 133.426 230.583 132.914C232.205 132.402 233.954 132.146 235.831 132.146C238.349 132.146 240.695 132.509 242.871 133.234C245.09 133.959 247.117 135.133 248.951 136.754L245.495 141.938C243.789 140.658 242.125 139.719 240.503 139.122C238.925 138.525 237.346 138.226 235.767 138.226C234.317 138.226 233.101 138.525 232.119 139.122C231.138 139.719 230.647 140.679 230.647 142.002C230.647 142.599 230.754 143.09 230.967 143.474C231.223 143.858 231.607 144.199 232.119 144.498C232.631 144.797 233.293 145.095 234.103 145.394C234.957 145.65 236.002 145.927 237.239 146.226C239.543 146.823 241.506 147.421 243.127 148.018C244.791 148.615 246.135 149.298 247.159 150.066C248.226 150.834 248.994 151.73 249.463 152.754C249.975 153.735 250.231 154.93 250.231 156.338C250.231 159.623 249.015 162.226 246.583 164.146C244.151 166.023 240.845 166.962 236.663 166.962ZM266.684 166.322V132.786H275.26V166.322H266.684ZM266.684 128.114V119.602H275.26V128.114H266.684ZM302.901 166.322L290.549 132.786H299.381L307.893 159.346L316.469 132.786H324.533L312.181 166.322H302.901ZM354.309 166.962C351.621 166.962 349.189 166.514 347.013 165.618C344.837 164.679 342.981 163.421 341.445 161.842C339.909 160.263 338.714 158.429 337.861 156.338C337.05 154.247 336.645 152.05 336.645 149.746C336.645 147.357 337.05 145.117 337.861 143.026C338.671 140.893 339.845 139.037 341.381 137.458C342.917 135.837 344.773 134.557 346.949 133.618C349.167 132.679 351.642 132.21 354.373 132.21C357.103 132.21 359.535 132.679 361.669 133.618C363.845 134.557 365.679 135.815 367.173 137.394C368.709 138.973 369.861 140.807 370.629 142.898C371.439 144.989 371.845 147.165 371.845 149.426C371.845 149.981 371.823 150.514 371.781 151.026C371.781 151.538 371.738 151.965 371.653 152.306H345.733C345.861 153.629 346.181 154.802 346.693 155.826C347.205 156.85 347.866 157.725 348.677 158.45C349.487 159.175 350.405 159.73 351.429 160.114C352.453 160.498 353.519 160.69 354.629 160.69C356.335 160.69 357.935 160.285 359.429 159.474C360.965 158.621 362.01 157.511 362.565 156.146L369.925 158.194C368.687 160.754 366.703 162.866 363.973 164.53C361.285 166.151 358.063 166.962 354.309 166.962ZM363.013 146.738C362.799 144.221 361.861 142.215 360.197 140.722C358.575 139.186 356.591 138.418 354.245 138.418C353.093 138.418 352.005 138.631 350.981 139.058C349.999 139.442 349.125 139.997 348.357 140.722C347.589 141.447 346.949 142.322 346.437 143.346C345.967 144.37 345.69 145.501 345.605 146.738H363.013Z" fill="#222222" fill-opacity="0.78"/>
<path d="M409.313 37.2247C409.889 37.2247 410.339 37.1827 410.663 37.0987C410.999 37.0027 411.251 36.8707 411.419 36.7027C411.587 36.5347 411.689 36.3247 411.725 36.0727C411.773 35.8087 411.797 35.5147 411.797 35.1907C411.797 34.8787 411.773 34.6087 411.725 34.3807C411.689 34.1407 411.599 33.9427 411.455 33.7867C411.311 33.6187 411.095 33.4927 410.807 33.4087C410.531 33.3247 410.153 33.2827 409.673 33.2827H408.161V37.2247H409.313ZM417.251 45.4687C418.151 44.4967 418.859 43.3687 419.375 42.0847C419.891 40.8007 420.149 39.4087 420.149 37.9087C420.149 36.8887 420.023 35.9107 419.771 34.9747C419.531 34.0387 419.183 33.1687 418.727 32.3647C418.283 31.5487 417.743 30.8107 417.107 30.1507C416.471 29.4787 415.763 28.9087 414.983 28.4407C414.203 27.9727 413.363 27.6127 412.463 27.3607C411.563 27.0967 410.621 26.9647 409.637 26.9647C408.173 26.9647 406.805 27.2467 405.533 27.8107C404.273 28.3747 403.175 29.1547 402.239 30.1507C401.303 31.1347 400.565 32.2927 400.025 33.6247C399.497 34.9567 399.233 36.3847 399.233 37.9087C399.233 39.4327 399.497 40.8547 400.025 42.1747C400.565 43.4947 401.303 44.6467 402.239 45.6307C403.175 46.6027 404.273 47.3707 405.533 47.9347C406.805 48.4867 408.173 48.7627 409.637 48.7627C411.029 48.7627 412.325 48.5167 413.525 48.0247C414.737 47.5327 415.811 46.8487 416.747 45.9727H412.841C412.181 45.9727 411.725 45.7387 411.473 45.2707L409.817 41.1127C409.685 40.9087 409.541 40.7647 409.385 40.6807C409.241 40.5847 409.025 40.5367 408.737 40.5367H408.161V45.9727H403.337V29.7547H409.673C410.873 29.7547 411.905 29.8627 412.769 30.0787C413.645 30.2947 414.359 30.6067 414.911 31.0147C415.475 31.4227 415.889 31.9267 416.153 32.5267C416.417 33.1267 416.549 33.8107 416.549 34.5787C416.549 35.0827 416.489 35.5687 416.369 36.0367C416.249 36.4927 416.063 36.9187 415.811 37.3147C415.571 37.6987 415.253 38.0467 414.857 38.3587C414.473 38.6707 414.011 38.9287 413.471 39.1327C413.819 39.3007 414.107 39.5347 414.335 39.8347C414.575 40.1227 414.797 40.4587 415.001 40.8427L417.251 45.4687ZM409.637 24.5167C410.873 24.5167 412.061 24.6787 413.201 25.0027C414.353 25.3147 415.421 25.7647 416.405 26.3527C417.401 26.9287 418.307 27.6247 419.123 28.4407C419.951 29.2567 420.653 30.1627 421.229 31.1587C421.817 32.1427 422.267 33.2047 422.579 34.3447C422.903 35.4847 423.065 36.6727 423.065 37.9087C423.065 39.1327 422.903 40.3147 422.579 41.4547C422.267 42.5947 421.817 43.6627 421.229 44.6587C420.653 45.6427 419.951 46.5427 419.123 47.3587C418.307 48.1747 417.401 48.8767 416.405 49.4647C415.421 50.0407 414.353 50.4907 413.201 50.8147C412.061 51.1267 410.873 51.2827 409.637 51.2827C408.401 51.2827 407.213 51.1267 406.073 50.8147C404.945 50.4907 403.883 50.0407 402.887 49.4647C401.891 48.8767 400.985 48.1747 400.169 47.3587C399.353 46.5427 398.651 45.6427 398.063 44.6587C397.487 43.6627 397.037 42.6007 396.713 41.4727C396.401 40.3327 396.245 39.1447 396.245 37.9087C396.245 36.6727 396.401 35.4847 396.713 34.3447C397.037 33.2047 397.487 32.1427 398.063 31.1587C398.651 30.1627 399.353 29.2567 400.169 28.4407C400.985 27.6247 401.891 26.9287 402.887 26.3527C403.883 25.7647 404.945 25.3147 406.073 25.0027C407.213 24.6787 408.401 24.5167 409.637 24.5167Z" fill="#14320D"/>
</svg>
